<svg xmlns="http://www.w3.org/2000/svg" viewBox="0 0 135.49 32.13"><title>Asset 1</title><g id="Layer_2" data-name="Layer 2"><g id="Layer_1-2" data-name="Layer 1"><path d="M17.9,18.28H6.39L4.5,22.44H0L9.88.41h4.53l9.88,22H19.76ZM12.15,5l-4.1,9.38h8.19Z" style="fill:#25a049"/><rect x="26.57" y="0.44" width="3.81" height="22" style="fill:#25a049"/><polygon points="50.37 6.89 43.76 22.5 39.61 22.5 32.97 6.89 37.15 6.89 39.3 12.02 41.69 18.57 44.05 12.08 46.19 6.89 50.37 6.89" style="fill:#25a049"/><path d="M57.08,2.55a2.27,2.27,0,0,1-4.54,0,2.27,2.27,0,0,1,4.54,0M52.89,6.86V22.44h3.84V6.86Z" style="fill:#25a049"/><path d="M72.9,5.35l2.83,2.14L74,9.69a6.6,6.6,0,0,1,1.64,4.6c0,1.92-.73,4.62-3.28,5.79a5.2,5.2,0,0,1,3.21,5.13c0,4.28-3.27,6.92-7.77,6.92s-7.87-2.74-7.87-6.92h3.81c0,2,1.86,3.33,4.06,3.33s3.93-1.19,3.93-3.33-2-3.12-3.93-3.12c-4.84,0-7.87-3-7.87-7.8A7.57,7.57,0,0,1,67.8,6.42a6.22,6.22,0,0,1,3.56.88Zm-9.16,8.94a4.05,4.05,0,1,0,8.09,0,4.06,4.06,0,1,0-8.09,0" style="fill:#25a049"/><path d="M81.85,0h4.53l2.33,4.28v.19H85.32L81.85.16Zm.35,16.05c.25,1.92,1.92,3.3,4.63,3.3A6.36,6.36,0,0,0,91,17.9l2.45,2.43a9.51,9.51,0,0,1-6.67,2.52c-5.35,0-8.53-3.31-8.53-8.28,0-4.72,3.21-8.12,8.25-8.12s8.43,3.21,7.83,9.6Zm8.43-3.18c-.25-2-1.82-3-4-3a4.19,4.19,0,0,0-4.34,3Z" style="fill:#25a049"/><path d="M109.22,22.44V14.32c0-2.36-1.29-4.16-3.74-4.16a4.09,4.09,0,0,0-4,4.35v7.93h-3.8V6.89h3.43L101.39,9a7,7,0,0,1,5.1-2.33c3.65,0,6.57,2.74,6.57,7.62v8.15Z" style="fill:#25a049"/><path d="M120.19,16.05c.25,1.92,1.91,3.3,4.62,3.3A6.34,6.34,0,0,0,129,17.9l2.46,2.43a9.53,9.53,0,0,1-6.67,2.52c-5.35,0-8.53-3.31-8.53-8.28,0-4.72,3.21-8.12,8.25-8.12,5.19,0,8.43,3.21,7.83,9.6Zm8.43-3.18c-.25-2-1.83-3-4-3a4.17,4.17,0,0,0-4.34,3Z" style="fill:#25a049"/><path d="M129.26,1.76V1.21h2.63v.55h-1V3.9h-.64V1.76ZM133,1.2l.93,1.18.94-1.18h.65V3.9h-.67l0-1.78L134,3.26h-.13l-.88-1.16,0,1.8h-.66V1.2Z" style="fill:#25a049"/></g></g></svg>